<?xml version="1.0" encoding="utf-8"?>
<!-- Generator: Adobe Illustrator 20.0.0, SVG Export Plug-In . SVG Version: 6.00 Build 0)  -->
<svg version="1.1" id="Layer_1" xmlns="http://www.w3.org/2000/svg" xmlns:xlink="http://www.w3.org/1999/xlink" x="0px" y="0px"
	 viewBox="0 0 64 64" style="enable-background:new 0 0 64 64;" xml:space="preserve">
<style type="text/css">
	.st0{fill:#2E2F33;}
</style>
<path class="st0" d="M46,46.3c-1.9,2.2-4,4-6.4,5.3c-2.4,1.3-4.9,1.9-7.6,1.9c-2.7,0-5.2-0.6-7.6-1.9c-2.4-1.3-4.5-3.1-6.5-5.3
	c-1.7,0.6-3.3,1.2-4.9,1.9c-1.6,0.7-2.7,1.3-3.4,1.7l-1.1,0.6c-1.3,0.8-2.3,2-3.2,3.6c-0.9,1.6-1.4,3.2-1.4,4.6
	c0,1.5,0.5,2.7,1.6,3.7S7.9,64,9.4,64h45.2c1.5,0,2.8-0.5,3.8-1.6c1.1-1,1.6-2.3,1.6-3.7c0-1.5-0.5-3-1.4-4.6
	c-0.9-1.6-2-2.8-3.3-3.6c-0.3-0.2-0.7-0.4-1.2-0.7c-0.5-0.3-1.6-0.8-3.2-1.5S47.7,46.9,46,46.3L46,46.3z M32,48
	c-1.4,0-2.9-0.3-4.3-0.9c-1.4-0.6-2.7-1.5-3.8-2.5c-1.2-1.1-2.2-2.3-3.2-3.8c-1-1.5-1.8-3.1-2.5-4.7c-0.7-1.7-1.2-3.5-1.6-5.3
	c-0.4-1.9-0.6-3.7-0.6-5.5c0-2.7,0.4-5.1,1.3-7.3c0.8-2.2,2-4,3.4-5.4s3.1-2.5,5.1-3.3s4-1.1,6.2-1.1c2.2,0,4.3,0.4,6.2,1.1
	c1.9,0.8,3.6,1.9,5.1,3.3s2.6,3.2,3.4,5.4c0.8,2.2,1.3,4.6,1.3,7.3c0,2.7-0.4,5.5-1.3,8.2c-0.8,2.8-2,5.2-3.4,7.4
	c-1.4,2.2-3.1,3.9-5.1,5.3C36.2,47.3,34.1,48,32,48L32,48z"/>
</svg>
